<svg width="31" height="31" viewBox="0 0 31 31" fill="none" xmlns="http://www.w3.org/2000/svg">
<path d="M29.7349 24.298L20.937 15.5001L29.7349 6.70225C29.9035 6.5316 29.998 6.3014 29.998 6.06153C29.998 5.82166 29.9035 5.59145 29.7349 5.42081L25.5788 1.26475C25.4948 1.18041 25.3949 1.11349 25.285 1.06782C25.175 1.02216 25.0572 0.998657 24.9381 0.998657C24.8191 0.998657 24.7012 1.02216 24.5912 1.06782C24.4813 1.11349 24.3814 1.18041 24.2974 1.26475L15.4995 10.0626L6.70164 1.26475C6.53169 1.09485 6.30122 0.99941 6.06092 0.99941C5.82061 0.99941 5.59015 1.09485 5.4202 1.26475L1.26414 5.42081C1.1798 5.50484 1.11288 5.60469 1.06721 5.71464C1.02155 5.82459 0.998047 5.94247 0.998047 6.06153C0.998047 6.18058 1.02155 6.29847 1.06721 6.40842C1.11288 6.51837 1.1798 6.61822 1.26414 6.70225L10.062 15.5001L1.26414 24.298C1.09424 24.4679 0.9988 24.6984 0.9988 24.9387C0.9988 25.179 1.09424 25.4095 1.26414 25.5794L5.4202 29.7355C5.50423 29.8198 5.60408 29.8868 5.71403 29.9324C5.82398 29.9781 5.94186 30.0016 6.06092 30.0016C6.17997 30.0016 6.29786 29.9781 6.40781 29.9324C6.51776 29.8868 6.61761 29.8198 6.70164 29.7355L15.4995 20.9376L24.2974 29.7355C24.4673 29.9054 24.6978 30.0008 24.9381 30.0008C25.1784 30.0008 25.4089 29.9054 25.5788 29.7355L29.7349 25.5794C29.8192 25.4954 29.8862 25.3956 29.9318 25.2856C29.9775 25.1757 30.001 25.0578 30.001 24.9387C30.001 24.8197 29.9775 24.7018 29.9318 24.5918C29.8862 24.4819 29.8192 24.382 29.7349 24.298Z" fill="#FD3E3E"/>
</svg>
