<svg width="83" height="83" viewBox="0 0 83 83" fill="none" xmlns="http://www.w3.org/2000/svg">
<path d="M81.2611 66.0736L56.6877 41.5002L81.2611 16.9268C81.7319 16.4502 81.996 15.8072 81.996 15.1372C81.996 14.4672 81.7319 13.8243 81.2611 13.3476L69.6528 1.73931C69.4181 1.50374 69.1392 1.31683 68.8321 1.18929C68.525 1.06175 68.1957 0.996094 67.8632 0.996094C67.5306 0.996094 67.2014 1.06175 66.8943 1.18929C66.5872 1.31683 66.3083 1.50374 66.0736 1.73931L41.5002 26.3127L16.9268 1.73931C16.4521 1.26478 15.8084 0.998197 15.1372 0.998197C14.466 0.998197 13.8223 1.26478 13.3476 1.73931L1.73931 13.3476C1.50374 13.5823 1.31683 13.8612 1.18929 14.1683C1.06175 14.4754 0.996094 14.8047 0.996094 15.1372C0.996094 15.4698 1.06175 15.799 1.18929 16.1061C1.31683 16.4132 1.50374 16.6921 1.73931 16.9268L26.3127 41.5002L1.73931 66.0736C1.26478 66.5482 0.998197 67.192 0.998197 67.8632C0.998197 68.5344 1.26478 69.1781 1.73931 69.6527L13.3476 81.2611C13.5823 81.4966 13.8612 81.6835 14.1683 81.8111C14.4754 81.9386 14.8047 82.0043 15.1372 82.0043C15.4698 82.0043 15.799 81.9386 16.1061 81.8111C16.4132 81.6835 16.6921 81.4966 16.9268 81.2611L41.5002 56.6877L66.0736 81.2611C66.5482 81.7356 67.192 82.0022 67.8632 82.0022C68.5344 82.0022 69.1781 81.7356 69.6528 81.2611L81.2611 69.6527C81.4966 69.4181 81.6836 69.1392 81.8111 68.8321C81.9386 68.5249 82.0043 68.1957 82.0043 67.8632C82.0043 67.5306 81.9386 67.2014 81.8111 66.8943C81.6836 66.5872 81.4966 66.3083 81.2611 66.0736Z" fill="#FD3E3E"/>
</svg>
