<svg width="53" height="55" viewBox="0 0 53 55" fill="none" xmlns="http://www.w3.org/2000/svg">
<path d="M35.4023 47.6953H40.1641C41.7015 47.6953 43.1759 47.0615 44.2631 45.9334C45.3502 44.8052 45.9609 43.2751 45.9609 41.6797V36.7383M45.9609 18.2617V13.3203C45.9609 11.7249 45.3502 10.1948 44.2631 9.06662C43.1759 7.93848 41.7015 7.30469 40.1641 7.30469H35.4023M17.5977 47.6953H12.8359C11.2985 47.6953 9.82405 47.0615 8.73693 45.9334C7.6498 44.8052 7.03906 43.2751 7.03906 41.6797V36.7383M7.03906 18.2617V13.3203C7.03906 11.7249 7.6498 10.1948 8.73693 9.06662C9.82405 7.93848 11.2985 7.30469 12.8359 7.30469H17.5977" stroke="#434343" stroke-width="4.16" stroke-linecap="round" stroke-linejoin="round"/>
<g clip-path="url(#clip0_48_1941)">
<path d="M16.8202 16.1377C16.4836 16.1377 16.1607 16.2765 15.9226 16.5235C15.6845 16.7706 15.5508 17.1057 15.5508 17.4551V22.7245H21.8981V16.1377H16.8202ZM20.3113 21.0778H17.1376V17.7844H20.3113V21.0778Z" fill="#434343"/>
<path d="M15.5508 37.8742C15.5508 38.2236 15.6845 38.5587 15.9226 38.8057C16.1607 39.0528 16.4836 39.1916 16.8202 39.1916H21.8981V32.6047H15.5508V37.8742ZM17.1376 34.2514H20.3113V37.5449H17.1376V34.2514Z" fill="#434343"/>
<path d="M31.418 39.1916H36.4958C36.8325 39.1916 37.1554 39.0528 37.3935 38.8057C37.6315 38.5587 37.7653 38.2236 37.7653 37.8742V32.6047H31.418V39.1916ZM33.0048 34.2514H36.1784V37.5449H33.0048V34.2514Z" fill="#434343"/>
<path d="M36.4958 16.1377H31.418V22.7245H37.7653V17.4551C37.7653 17.1057 37.6315 16.7706 37.3935 16.5235C37.1554 16.2765 36.8325 16.1377 36.4958 16.1377ZM36.1784 21.0778H33.0048V17.7844H36.1784V21.0778Z" fill="#434343"/>
<path d="M28.2459 21.0779V19.4312H25.0723V22.7246H26.6591V21.0779H28.2459Z" fill="#434343"/>
<path d="M21.8984 22.7244H23.4853V24.3711H21.8984V22.7244Z" fill="#434343"/>
<path d="M23.4844 24.3711H26.658V26.0178H23.4844V24.3711Z" fill="#434343"/>
<path d="M28.2449 17.7844V19.4311H29.8317V16.1377H23.4844V19.4311H25.0712V17.7844H28.2449Z" fill="#434343"/>
<path d="M15.5508 24.3711H17.1376V27.6645H15.5508V24.3711Z" fill="#434343"/>
<path d="M21.8981 26.0178V27.6645H20.3113V24.3711H18.7244V27.6645H17.1376V29.3112H15.5508V30.9579H18.7244V29.3112H20.3113V30.9579H21.8981V29.3112H23.4849V26.0178H21.8981Z" fill="#434343"/>
<path d="M28.245 26.018H29.8319V27.6647H31.4187V26.018H33.0055V24.3713H29.8319V21.0779H28.245V22.7246H26.6582V24.3713H28.245V26.018Z" fill="#434343"/>
<path d="M26.658 37.5449H23.4844V39.1916H29.8317V37.5449H28.2449V35.8982H26.658V37.5449Z" fill="#434343"/>
<path d="M29.8327 29.3112V27.6645H28.2459V26.0178H26.6591V27.6645H25.0723V29.3112H26.6591V30.9579H28.2459V29.3112H29.8327Z" fill="#434343"/>
<path d="M36.1797 29.3113H37.7665V30.958H36.1797V29.3113Z" fill="#434343"/>
<path d="M29.832 29.3113H34.5925V30.958H29.832V29.3113Z" fill="#434343"/>
<path d="M36.1795 24.3711H34.5927V26.0178H33.0059V27.6645H34.5927V29.3112H36.1795V27.6645H37.7663V26.0178H36.1795V24.3711Z" fill="#434343"/>
<path d="M28.2461 30.958H29.8329V35.8981H28.2461V30.958Z" fill="#434343"/>
<path d="M23.4844 35.8981H25.0712V34.2514H26.658V32.6047H25.0712V29.3113H23.4844V35.8981Z" fill="#434343"/>
</g>
<defs>
<clipPath id="clip0_48_1941">
<rect width="28.5629" height="29.6407" fill="white" transform="translate(12.377 12.8442)"/>
</clipPath>
</defs>
</svg>
